<svg width="24" height="24" viewBox="0 0 24 24" fill="none" xmlns="http://www.w3.org/2000/svg">
<path d="M20.34 9.32L6.34 2.32C5.78749 2.04501 5.16362 1.94711 4.55344 2.03965C3.94326 2.13219 3.37646 2.41067 2.93033 2.83712C2.48421 3.26356 2.18046 3.81722 2.0605 4.42261C1.94054 5.028 2.0102 5.65565 2.26 6.22L4.66 11.59C4.71446 11.7198 4.74251 11.8592 4.74251 12C4.74251 12.1408 4.71446 12.2802 4.66 12.41L2.26 17.78C2.0567 18.2367 1.97076 18.737 2.00998 19.2354C2.0492 19.7337 2.21235 20.2144 2.48459 20.6337C2.75682 21.053 3.12953 21.3976 3.56883 21.6362C4.00812 21.8748 4.50009 21.9999 5 22C5.46823 21.9953 5.92949 21.886 6.35 21.68L20.35 14.68C20.8466 14.4302 21.264 14.0473 21.5557 13.5741C21.8474 13.1009 22.0018 12.5559 22.0018 12C22.0018 11.4441 21.8474 10.8991 21.5557 10.4259C21.264 9.9527 20.8466 9.56981 20.35 9.32H20.34ZM19.45 12.89L5.45 19.89C5.26617 19.9783 5.05973 20.0082 4.85839 19.9758C4.65705 19.9435 4.47041 19.8503 4.32352 19.7089C4.17662 19.5674 4.07648 19.3844 4.03653 19.1844C3.99658 18.9845 4.01873 18.777 4.1 18.59L6.49 13.22C6.52094 13.1483 6.54766 13.0748 6.57 13H13.46C13.7252 13 13.9796 12.8946 14.1671 12.7071C14.3546 12.5196 14.46 12.2652 14.46 12C14.46 11.7348 14.3546 11.4804 14.1671 11.2929C13.9796 11.1054 13.7252 11 13.46 11H6.57C6.54766 10.9252 6.52094 10.8517 6.49 10.78L4.1 5.41C4.01873 5.22296 3.99658 5.01555 4.03653 4.81557C4.07648 4.61559 4.17662 4.4326 4.32352 4.29115C4.47041 4.14969 4.65705 4.05653 4.85839 4.02415C5.05973 3.99177 5.26617 4.02173 5.45 4.11L19.45 11.11C19.6138 11.1939 19.7513 11.3214 19.8473 11.4784C19.9433 11.6355 19.994 11.816 19.994 12C19.994 12.184 19.9433 12.3645 19.8473 12.5216C19.7513 12.6786 19.6138 12.8061 19.45 12.89V12.89Z" fill="#333333"/>
</svg>
