<svg width="106" height="22" viewBox="0 0 106 22" fill="none" xmlns="http://www.w3.org/2000/svg">
<rect x="56.4424" y="0.10437" width="20.9705" height="20.9705" fill="#D1FAE8"/>
<path d="M62.5239 16.2165V4.7549H67.4712C68.3219 4.7549 69.0662 4.9228 69.7042 5.25858C70.3422 5.59437 70.8384 6.06634 71.1928 6.67449C71.5473 7.28264 71.7245 7.9934 71.7245 8.80675C71.7245 9.62757 71.5417 10.3383 71.1761 10.939C70.8142 11.5397 70.3049 12.0023 69.6482 12.3269C68.9953 12.6515 68.2323 12.8138 67.3593 12.8138H64.4043V10.3962H66.7325C67.0981 10.3962 67.4096 10.3327 67.6671 10.2059C67.9282 10.0753 68.1278 9.8906 68.2659 9.65182C68.4077 9.41304 68.4786 9.13135 68.4786 8.80675C68.4786 8.47843 68.4077 8.1986 68.2659 7.96728C68.1278 7.73223 67.9282 7.55314 67.6671 7.43002C67.4096 7.30316 67.0981 7.23974 66.7325 7.23974H65.6355V16.2165H62.5239Z" fill="#1E1E1E"/>
<rect x="28.1689" width="20.9705" height="20.9705" fill="#FF8E8E"/>
<path d="M34.476 16.4457V4.98412H42.5349V7.49134H37.5877V9.4613H42.0425V11.9685H37.5877V16.4457H34.476Z" fill="#1E1E1E"/>
<rect width="20.8662" height="20.8662" fill="#E5ECFF"/>
<path d="M12.1761 8.22587C12.1463 7.85277 12.0063 7.56175 11.7564 7.35282C11.5101 7.14388 11.1352 7.03942 10.6315 7.03942C10.3106 7.03942 10.0476 7.07859 9.84237 7.15694C9.6409 7.23156 9.49166 7.33416 9.39465 7.46475C9.29765 7.59533 9.24728 7.74457 9.24355 7.91247C9.23608 8.05051 9.26034 8.1755 9.3163 8.28743C9.376 8.39563 9.46927 8.4945 9.59612 8.58404C9.72298 8.66986 9.88528 8.74821 10.083 8.8191C10.2808 8.88998 10.5158 8.95341 10.7882 9.00938L11.7284 9.21085C12.3627 9.34517 12.9055 9.52239 13.357 9.74252C13.8084 9.96264 14.1778 10.2219 14.4651 10.5204C14.7523 10.8152 14.9631 11.1472 15.0975 11.5166C15.2355 11.886 15.3064 12.2889 15.3101 12.7254C15.3064 13.4791 15.118 14.1171 14.7449 14.6394C14.3718 15.1618 13.8383 15.5591 13.1443 15.8315C12.4541 16.1038 11.6239 16.24 10.6539 16.24C9.65769 16.24 8.78837 16.0927 8.0459 15.7979C7.30716 15.5032 6.73259 15.0498 6.32218 14.438C5.91551 13.8223 5.7103 13.0351 5.70657 12.0762H8.66151C8.68017 12.427 8.76785 12.7217 8.92455 12.9605C9.08125 13.1993 9.30138 13.3802 9.58493 13.5033C9.87222 13.6265 10.2136 13.688 10.6091 13.688C10.9411 13.688 11.2191 13.647 11.443 13.5649C11.6668 13.4828 11.8366 13.369 11.9522 13.2235C12.0679 13.078 12.1276 12.912 12.1313 12.7254C12.1276 12.5501 12.0698 12.3971 11.9578 12.2665C11.8496 12.1322 11.6706 12.0128 11.4206 11.9084C11.1706 11.8002 10.8329 11.6994 10.4076 11.6061L9.26593 11.3599C8.2511 11.1398 7.45081 10.7723 6.86504 10.2574C6.28301 9.73878 5.99386 9.03176 5.99759 8.13633C5.99386 7.40878 6.18787 6.77265 6.57962 6.22793C6.97511 5.67947 7.5217 5.25227 8.21939 4.94633C8.92082 4.64039 9.72484 4.48742 10.6315 4.48742C11.5568 4.48742 12.3571 4.64226 13.0324 4.95193C13.7077 5.2616 14.2281 5.69813 14.5938 6.26151C14.9631 6.82115 15.1497 7.47594 15.1534 8.22587H12.1761Z" fill="#1E1E1E"/>
<rect x="84.7158" y="0.208679" width="20.9705" height="20.9705" fill="#D4FFB2"/>
<path d="M95.9595 4.79039H99.0264V12.6479C99.0226 13.394 98.8342 14.0507 98.4611 14.6178C98.0918 15.1812 97.5806 15.6214 96.9277 15.9386C96.2785 16.252 95.5304 16.4087 94.6835 16.4087C93.9485 16.4087 93.2769 16.2818 92.6688 16.0281C92.0606 15.7707 91.5756 15.3677 91.2137 14.8193C90.8518 14.2671 90.6727 13.5507 90.6764 12.6702H93.7881C93.7993 12.9575 93.8478 13.2 93.9336 13.3978C94.0231 13.5955 94.1462 13.7448 94.3029 13.8455C94.4634 13.9425 94.6574 13.991 94.885 13.991C95.1163 13.991 95.3103 13.9406 95.467 13.8399C95.6274 13.7392 95.7487 13.5899 95.8308 13.3922C95.9129 13.1907 95.9558 12.9426 95.9595 12.6479V4.79039Z" fill="#1E1E1E"/>
</svg>
